<!-- Generated by IcoMoon.io -->
<svg version="1.1" xmlns="http://www.w3.org/2000/svg" width="32" height="32" viewBox="0 0 32 32">
<g id="bin">
<path fill="currentColor" d="M1.067 4.267c-0.589 0-1.067 0.478-1.067 1.067s0.478 1.067 1.067 1.067v-2.133zM30.933 6.4c0.589 0 1.067-0.478 1.067-1.067s-0.478-1.067-1.067-1.067v2.133zM1.067 6.4h29.866v-2.133h-29.866v2.133z"></path>
<path fill="currentColor" d="M12.8 1.067v0zM10.667 3.2v0zM9.6 5.334c0 0.589 0.478 1.067 1.067 1.067s1.067-0.478 1.067-1.067h-2.133zM20.267 5.334c0 0.589 0.478 1.067 1.067 1.067s1.067-0.478 1.067-1.067h-2.133zM21.333 3.2v0zM19.2 0h-6.4v2.133h6.4v-2.133zM12.8 0c-0.849 0-1.663 0.337-2.263 0.937l1.508 1.508c0.2-0.2 0.471-0.312 0.754-0.312v-2.133zM10.537 0.938c-0.6 0.6-0.937 1.414-0.937 2.263h2.133c0-0.283 0.112-0.554 0.312-0.754l-1.508-1.508zM9.6 3.2v2.133h2.133v-2.133h-2.133zM22.4 5.334v-2.133h-2.133v2.133h2.133zM22.4 3.2c0-0.849-0.337-1.663-0.937-2.263l-1.509 1.508c0.2 0.2 0.312 0.471 0.312 0.754h2.133zM21.463 0.938c-0.6-0.6-1.414-0.937-2.263-0.937v2.133c0.283 0 0.554 0.112 0.754 0.312l1.509-1.508z"></path>
<path fill="currentColor" d="M11.733 23.467c0 0.589 0.478 1.067 1.067 1.067s1.067-0.478 1.067-1.067h-2.133zM13.867 12.8c0-0.589-0.478-1.067-1.067-1.067s-1.067 0.478-1.067 1.067h2.133zM13.867 23.467v-10.666h-2.133v10.666h2.133z"></path>
<path fill="currentColor" d="M18.133 23.467c0 0.589 0.478 1.067 1.067 1.067s1.067-0.478 1.067-1.067h-2.133zM20.267 12.8c0-0.589-0.478-1.067-1.067-1.067s-1.067 0.478-1.067 1.067h2.133zM20.267 23.467v-10.666h-2.133v10.666h2.133z"></path>
<path fill="currentColor" d="M25.763 28.976v0zM23.637 30.933l0-1.067h-0v1.067zM8.364 30.933v-1.067h-0l0 1.067zM6.238 28.976v0zM5.33 5.245c-0.049-0.587-0.565-1.023-1.152-0.974s-1.023 0.565-0.974 1.152l2.126-0.177zM28.796 5.422c0.049-0.587-0.387-1.103-0.974-1.152s-1.103 0.387-1.152 0.974l2.126 0.177zM24.7 28.888c-0.022 0.267-0.144 0.515-0.341 0.697l1.445 1.57c0.591-0.544 0.956-1.29 1.022-2.090l-2.126-0.176zM24.36 29.584c-0.197 0.181-0.455 0.282-0.722 0.282l-0 2.133c0.803 0 1.577-0.302 2.167-0.845l-1.445-1.57zM23.637 29.866h-15.273v2.133h15.273v-2.133zM8.364 29.866c-0.268 0-0.526-0.101-0.722-0.282l-1.445 1.57c0.591 0.544 1.364 0.845 2.167 0.845l-0-2.133zM7.642 29.584c-0.197-0.181-0.319-0.43-0.341-0.697l-2.126 0.176c0.066 0.8 0.431 1.546 1.022 2.090l1.445-1.57zM7.301 28.888l-1.971-23.643-2.126 0.177 1.971 23.643 2.126-0.177zM26.67 5.245l-1.97 23.643 2.126 0.177 1.97-23.643-2.126-0.177z"></path>
</g>
</svg>
