<svg width="66" height="67" viewBox="0 0 66 67" fill="none" xmlns="http://www.w3.org/2000/svg">
<path id="Vector" d="M65 21.9999V9.97594C65 7.85836 64.1605 5.82716 62.6654 4.32756C61.1703 2.82795 59.1416 1.98229 57.024 1.97594L45 1.93994M65 45.9999V57.9999C65 60.1217 64.1572 62.1565 62.6569 63.6568C61.1566 65.1571 59.1217 65.9999 57 65.9999H45M21 1.93994L8.976 1.97994C6.85843 1.98629 4.82976 2.83195 3.33465 4.33156C1.83955 5.83116 0.99999 7.86236 1 9.97994V21.9999M21 65.9999H9C6.87827 65.9999 4.84344 65.1571 3.34315 63.6568C1.84285 62.1565 1 60.1217 1 57.9999V45.9999" stroke="#C4C4C4" stroke-width="2" stroke-linecap="round" stroke-linejoin="round"/>
</svg>
